<svg xmlns="http://www.w3.org/2000/svg" viewBox="0 0 299.16 114.16"><defs><style>.cls-1,.cls-2{fill:#2d2d2d;}.cls-1{stroke:#2d2d2d;stroke-linecap:round;stroke-linejoin:round;}</style></defs><title>logo-motrion</title><g id="Layer_1" data-name="Layer 1"><path class="cls-1" d="M459,536.92l7.91-4.42h0c24.2-.72,109.2,44.47,113.12,46.57L483.33,523.3h0l-1.55-.89-.37-.22-18.57,11.13.17-.08-.95.54-4.49,2.59Z" transform="translate(-296.5 -465.8)"/><path class="cls-1" d="M527.19,579.32c-1-.57-4.53-2.54-9.73-5.42l-.16-.09c-5.44-3-12.72-7-21-11.55l-.5-.27c-22.32-12.16-51.61-27.75-71.23-36.78-33.4,4.17-123.24,51.94-127.59,54.25L401.85,519l1.62-.94.06,0,9-5.51Z" transform="translate(-296.5 -465.8)"/></g><g id="Layer_3" data-name="Layer 3"><path class="cls-2" d="M387.7,494.53a11.77,11.77,0,0,1-.14,1.56c-.09.7-.21,1.44-.35,2.23s-.29,1.58-.44,2.35-.27,1.43-.37,2l-4.78,22.17h-6.48l4.94-23.71c.1-.45.21-.95.31-1.5s.21-1.1.3-1.64.16-1,.22-1.5.08-.83.08-1.09a7.5,7.5,0,0,0-1.35-4.8,5,5,0,0,0-4.19-1.68,7.82,7.82,0,0,0-3.1.69,14.15,14.15,0,0,0-3.12,1.88,22.1,22.1,0,0,0-2.92,2.76,27.35,27.35,0,0,0-2.57,3.38,27,27,0,0,0-2,3.68,19.2,19.2,0,0,0-1.22,3.69l-4.23,19.84h-6.56l5-23.71c.1-.45.21-.95.31-1.5s.21-1.1.3-1.64.16-1,.22-1.5.08-.83.08-1.09a7.32,7.32,0,0,0-1.39-4.8,5,5,0,0,0-4.14-1.68,8.07,8.07,0,0,0-3.17.69,14,14,0,0,0-3.16,1.9,22,22,0,0,0-2.94,2.8,29.43,29.43,0,0,0-2.57,3.4,23.39,23.39,0,0,0-2,3.68,19.14,19.14,0,0,0-1.21,3.69l-4.23,19.76h-6.56l6.25-28.89c.21-1,.42-2.1.63-3.22s.41-2.2.59-3.24.34-2,.48-2.9.23-1.64.31-2.22h6.32c-.13,1-.29,2.11-.47,3.23s-.34,2.15-.47,3.1-.33,2.18-.52,3.24h.16a34.8,34.8,0,0,1,3.08-4.23,22.91,22.91,0,0,1,3.52-3.34,16.3,16.3,0,0,1,3.87-2.19,11.3,11.3,0,0,1,4.19-.79,11.44,11.44,0,0,1,4.35.75,8.11,8.11,0,0,1,3,2.11,9.45,9.45,0,0,1,1.84,3.3,16.63,16.63,0,0,1,.75,4.31,37.35,37.35,0,0,1,3.14-4.13,22.74,22.74,0,0,1,3.59-3.32,17.33,17.33,0,0,1,4.07-2.21,12.89,12.89,0,0,1,4.57-.81q5.06,0,7.58,2.94T387.7,494.53Z" transform="translate(-296.5 -465.8)"/><path class="cls-2" d="M431,492.65a14.54,14.54,0,0,0-3.06-5,13.37,13.37,0,0,0-4.76-3.18,16.94,16.94,0,0,0-6.23-1.1,19.75,19.75,0,0,0-8.95,2A21.16,21.16,0,0,0,401,491a26.34,26.34,0,0,0-4.51,8.42,33.19,33.19,0,0,0-1.6,10.41,19.72,19.72,0,0,0,1.05,6.66l.13.33c.83-.44,1.67-.88,2.52-1.26,1.18-.54,2.37-1,3.57-1.56a.06.06,0,0,1,0,0,15,15,0,0,1-.62-4.44,27.51,27.51,0,0,1,1.05-7.57,23.38,23.38,0,0,1,3-6.6,15.77,15.77,0,0,1,4.74-4.68,11.47,11.47,0,0,1,6.29-1.78,8.69,8.69,0,0,1,3.63.73A7.91,7.91,0,0,1,423,491.7a10,10,0,0,1,1.78,3.36,15.16,15.16,0,0,1,.63,4.57,28.06,28.06,0,0,1-1,7.58,23.49,23.49,0,0,1-2.15,5.25,50.24,50.24,0,0,1,5.46,3.23,27.5,27.5,0,0,0,2.84-6.18,33.89,33.89,0,0,0,1.52-10.2A19.26,19.26,0,0,0,431,492.65Z" transform="translate(-296.5 -465.8)"/><path class="cls-2" d="M462.38,489.83H452.19l-4.55,21.45c-.15.82-.31,1.7-.47,2.65a14.45,14.45,0,0,0-.24,2.29,4,4,0,0,0,.89,2.91,3.9,3.9,0,0,0,2.83.89,6.69,6.69,0,0,0,1.22-.16c.5-.11,1-.24,1.54-.4s1-.33,1.56-.53l1.37-.53-1.23,5.69a19,19,0,0,1-3.14,1,14.34,14.34,0,0,1-3.34.42,11.32,11.32,0,0,1-3.83-.57,6.6,6.6,0,0,1-2.59-1.65,6.32,6.32,0,0,1-1.46-2.58,12.09,12.09,0,0,1-.46-3.42,20.15,20.15,0,0,1,.22-2.67,26.41,26.41,0,0,1,.54-2.78l4.66-22H439l1.23-5.5h6.63l2.1-9.87a10.3,10.3,0,0,1,1.2-.38l2.3-.67,2.29-.69,1.16-.36-2.49,12h10.2Z" transform="translate(-296.5 -465.8)"/><path class="cls-2" d="M491.54,491.21h-.15a11.24,11.24,0,0,0-2.08-.93,7.62,7.62,0,0,0-2.55-.45,7.43,7.43,0,0,0-4.38,1.48,16.18,16.18,0,0,0-3.82,3.91,28.59,28.59,0,0,0-3,5.55,37.31,37.31,0,0,0-2,6.4l-3.8,17.63h-6.48L469,497.93c.24-1.11.48-2.27.71-3.48s.46-2.42.66-3.63.37-2.38.53-3.48.28-2.11.35-3h6.41c-.08.8-.18,1.63-.28,2.51s-.21,1.74-.32,2.57-.21,1.58-.31,2.25-.19,1.2-.24,1.57h.16a41.6,41.6,0,0,1,2.57-4.07,18.77,18.77,0,0,1,2.74-3.11,11.63,11.63,0,0,1,3.06-2,8.58,8.58,0,0,1,3.52-.71,11.45,11.45,0,0,1,2.19.21c.73.15,1.38.3,2,.46Z" transform="translate(-296.5 -465.8)"/><path class="cls-2" d="M506.52,524.64a15,15,0,0,1-2.23.51,16,16,0,0,1-2.47.2c-2.66,0-4.65-.66-6-2a7.23,7.23,0,0,1-2-5.35,16.35,16.35,0,0,1,.19-2.33c.13-.9.35-2,.64-3.32l5.88-28h6.56l-5.93,28.18c-.23,1.11-.4,2-.49,2.57a10.79,10.79,0,0,0-.14,1.54,3.27,3.27,0,0,0,.89,2.47,4,4,0,0,0,2.83.85,12,12,0,0,0,1.8-.12,8,8,0,0,0,1.44-.36Zm4.62-54.73a4.28,4.28,0,0,1-1.2,3,4,4,0,0,1-3,1.26,4.2,4.2,0,0,1-3-1.25,4.1,4.1,0,0,1-1.28-3.06,3.79,3.79,0,0,1,1.28-3,4.41,4.41,0,0,1,3-1.15,4.15,4.15,0,0,1,3,1.17A3.91,3.91,0,0,1,511.14,469.91Z" transform="translate(-296.5 -465.8)"/><path class="cls-2" d="M551.25,499.31a33.89,33.89,0,0,1-1.52,10.2,26.19,26.19,0,0,1-4.39,8.43,21.26,21.26,0,0,1-7,5.73,19.83,19.83,0,0,1-9.23,2.12,16.78,16.78,0,0,1-6.26-1.11,13,13,0,0,1-4.74-3.18,14,14,0,0,1-3-5,20,20,0,0,1-1-6.66,32.9,32.9,0,0,1,1.6-10.41,26.32,26.32,0,0,1,4.5-8.42,21.09,21.09,0,0,1,7-5.61,19.72,19.72,0,0,1,9-2,16.88,16.88,0,0,1,6.22,1.1,13.28,13.28,0,0,1,4.76,3.18,14.39,14.39,0,0,1,3.06,5A19,19,0,0,1,551.25,499.31Zm-6.64.32a15.16,15.16,0,0,0-.63-4.57,9.77,9.77,0,0,0-1.78-3.36,7.82,7.82,0,0,0-2.77-2.09,8.69,8.69,0,0,0-3.63-.73,11.44,11.44,0,0,0-6.28,1.78,15.77,15.77,0,0,0-4.74,4.68,23.12,23.12,0,0,0-3,6.6,27.5,27.5,0,0,0-1,7.57,15,15,0,0,0,.61,4.44,10,10,0,0,0,1.74,3.4,7.55,7.55,0,0,0,2.76,2.15,8.8,8.8,0,0,0,3.7.75,11.59,11.59,0,0,0,6.32-1.76,15.59,15.59,0,0,0,4.74-4.66,22.56,22.56,0,0,0,3-6.62A28.06,28.06,0,0,0,544.61,499.63Z" transform="translate(-296.5 -465.8)"/><path class="cls-2" d="M595.66,494.45a11.48,11.48,0,0,1-.14,1.62c-.09.69-.21,1.42-.35,2.21s-.29,1.58-.44,2.35-.28,1.45-.41,2l-4.7,22.17h-6.56L588,501.09c.1-.42.21-.91.31-1.46s.2-1.11.28-1.66.14-1.06.2-1.52.08-.83.08-1.09a7.21,7.21,0,0,0-1.45-4.74,5.24,5.24,0,0,0-4.28-1.74,10,10,0,0,0-5.18,1.54,21.44,21.44,0,0,0-4.74,3.91,26.55,26.55,0,0,0-3.74,5.22,20,20,0,0,0-2.11,5.49l-4.23,19.76h-6.56l6.25-28.89c.21-1,.42-2.1.63-3.22s.41-2.2.59-3.24.34-2,.48-2.9.23-1.64.31-2.22h6.32c-.13,1-.29,2.11-.47,3.23s-.34,2.15-.47,3.1-.33,2.18-.52,3.24h.16a33.25,33.25,0,0,1,3.06-4.09,22.54,22.54,0,0,1,3.64-3.36,17,17,0,0,1,4.15-2.27,12.71,12.71,0,0,1,4.6-.83,11.93,11.93,0,0,1,4.62.81,8.66,8.66,0,0,1,3.22,2.27,9.21,9.21,0,0,1,1.9,3.52A15.65,15.65,0,0,1,595.66,494.45Z" transform="translate(-296.5 -465.8)"/></g></svg>